<?xml version="1.0" encoding="iso-8859-1"?>
<!-- Uploaded to: SVG Repo, www.svgrepo.com, Generator: SVG Repo Mixer Tools -->
<svg fill="#000000" height="800px" width="800px" version="1.1" id="Capa_1" xmlns="http://www.w3.org/2000/svg" xmlns:xlink="http://www.w3.org/1999/xlink" 
	 viewBox="0 0 490 490" xml:space="preserve">
<g>
	<g>
		<polygon points="33.1,364 126,456.9 126,364 		"/>
		<g>
			<path d="M301.3,196.6h-20.5v30.6h20.5c10.4,0,18.9-6.9,18.9-15.3C320.2,203.5,311.7,196.6,301.3,196.6z"/>
			<ellipse cx="195.9" cy="186.2" rx="18.3" ry="41"/>
			<path d="M301.3,145.3h-20.5v30.6h20.5c10.4,0,18.9-6.9,18.9-15.3C320.2,152.1,311.7,145.3,301.3,145.3z"/>
			<path d="M0,0v336.4h140c7.4,0,13.6,6.2,13.6,13.6v140H490V0H0z M131,211.7c0,19.9-20,36.1-44.6,36.1s-44.6-16.2-44.6-36.1v-1.9
				c0-5.7,5.7-10.3,12.7-10.3s12.7,4.6,12.7,10.3v1.9c0,8.5,8.6,15.5,19.1,15.5s19.1-7,19.1-15.5V135c0-5.7,5.7-10.3,12.7-10.3
				s12.7,4.6,12.7,10.3v76.7H131z M195.9,247.8c-24.2,0-43.8-27.6-43.8-61.6s19.6-61.6,43.8-61.6s43.8,27.6,43.8,61.6
				S220.1,247.8,195.9,247.8z M345.7,211.9c0,19.8-19.9,35.9-44.4,35.9h-33.2c-7,0-12.7-4.6-12.7-10.3v-51.2c0,0,0,0,0-0.1
				c0,0,0,0,0-0.1V135c0-5.7,5.7-10.3,12.7-10.3h33.2c24.5,0,44.4,16.1,44.4,35.9c0,10-5.1,19.1-13.4,25.7
				C340.6,192.8,345.7,201.9,345.7,211.9z M403.9,247.8c-12.2,0-24-4.1-32.3-11.3c-4.8-4.1-4.6-10.7,0.5-14.6
				c5.1-3.9,13.2-3.7,18,0.4c3.6,3.1,8.5,4.8,13.8,4.8c10.4,0,18.9-6.9,18.9-15.3s-8.5-15.3-18.9-15.3c-24.5,0-44.4-16.1-44.4-36
				c0-19.8,19.9-36,44.4-36c12.2,0,24,4.1,32.3,11.3c4.8,4.1,4.6,10.7-0.5,14.6c-5.1,3.9-13.2,3.7-18-0.4c-3.6-3.1-8.5-4.8-13.8-4.8
				c-10.4,0-18.9,6.9-18.9,15.3s8.5,15.3,18.9,15.3c24.5,0,44.4,16.1,44.4,36S428.3,247.8,403.9,247.8z"/>
		</g>
	</g>
</g>
</svg>